<svg xmlns="http://www.w3.org/2000/svg" xmlns:xlink="http://www.w3.org/1999/xlink" viewBox="0 0 618.74 711.62"><defs><linearGradient id="linear-gradient" x1="605.04" y1="475.56" x2="118.55" y2="962.05" gradientTransform="translate(671.17 1074.62) rotate(180)" gradientUnits="userSpaceOnUse"><stop offset="0" stop-color="#02b1b4"/><stop offset="0.34" stop-color="#03d5a1"/><stop offset="0.67" stop-color="#01dfa7"/><stop offset="1" stop-color="#36ffcf"/></linearGradient></defs><g id="Polygon"><polygon points="9.17 182.49 9.17 529.13 309.37 702.46 609.57 529.13 609.57 182.49 309.37 9.17 9.17 182.49" fill="none" stroke-linecap="round" stroke-linejoin="round" stroke-width="18.33" stroke="url(#linear-gradient)"/></g><g id="Brisbane"><path d="M430.78,424.33a6.93,6.93,0,0,1,1.37,4.41,6.33,6.33,0,0,1-2.68,5.48c-1.79,1.28-4.39,1.91-7.81,1.91H408.58v-27.4h12.3q4.69,0,7.26,1.88a6.09,6.09,0,0,1,2.56,5.21,6.71,6.71,0,0,1-1,3.71,6.45,6.45,0,0,1-2.68,2.39A7.07,7.07,0,0,1,430.78,424.33ZM412.5,411.9v8.77h8a8.09,8.09,0,0,0,4.64-1.12,4.09,4.09,0,0,0,0-6.53,8.09,8.09,0,0,0-4.64-1.12Zm14,20a3.81,3.81,0,0,0,1.69-3.45q0-4.57-6.7-4.58h-9V433h9A9.27,9.27,0,0,0,426.51,431.87Z" transform="translate(-229.88 -184.19)" fill="#fff"/><path d="M464.37,436.13l-5.91-8.41c-.73,0-1.31.08-1.72.08H450v8.33h-3.91v-27.4h10.69q5.33,0,8.38,2.54a8.66,8.66,0,0,1,3.05,7,9.09,9.09,0,0,1-1.57,5.4,8.77,8.77,0,0,1-4.46,3.25l6.5,9.2Zm-2.07-13.27a6.33,6.33,0,0,0,0-9.14,8.84,8.84,0,0,0-5.68-1.58H450v12.33h6.66A8.78,8.78,0,0,0,462.3,422.86Z" transform="translate(-229.88 -184.19)" fill="#fff"/><path d="M482.34,408.73h3.92v27.4h-3.92Z" transform="translate(-229.88 -184.19)" fill="#fff"/><path d="M504.33,435.49A12.3,12.3,0,0,1,499.8,433l1.45-3.05a12,12,0,0,0,4,2.29,14.64,14.64,0,0,0,5,.88,9.08,9.08,0,0,0,5.09-1.15,3.57,3.57,0,0,0,1.68-3.08,3,3,0,0,0-.92-2.29,6,6,0,0,0-2.27-1.35c-.9-.31-2.17-.67-3.82-1.06a39.76,39.76,0,0,1-5-1.48,8.27,8.27,0,0,1-3.25-2.29,6.15,6.15,0,0,1-1.35-4.17,7.06,7.06,0,0,1,1.15-4,8,8,0,0,1,3.51-2.82,14.27,14.27,0,0,1,5.83-1.05,18.39,18.39,0,0,1,4.78.62,12.85,12.85,0,0,1,4,1.8L518.48,414a14,14,0,0,0-3.68-1.67,13.69,13.69,0,0,0-3.84-.57,8.44,8.44,0,0,0-5,1.22,3.71,3.71,0,0,0-1.66,3.13,3,3,0,0,0,.94,2.29,6.45,6.45,0,0,0,2.33,1.37,36,36,0,0,0,3.77,1,36.84,36.84,0,0,1,5,1.49,8.3,8.3,0,0,1,3.23,2.27,6,6,0,0,1,1.35,4.11,7,7,0,0,1-1.18,3.93,7.83,7.83,0,0,1-3.56,2.82,14.75,14.75,0,0,1-5.87,1A18.66,18.66,0,0,1,504.33,435.49Z" transform="translate(-229.88 -184.19)" fill="#fff"/><path d="M556.65,424.33a6.93,6.93,0,0,1,1.37,4.41,6.33,6.33,0,0,1-2.68,5.48c-1.79,1.28-4.39,1.91-7.81,1.91H534.45v-27.4h12.3q4.69,0,7.26,1.88a6.09,6.09,0,0,1,2.56,5.21,6.71,6.71,0,0,1-1,3.71,6.45,6.45,0,0,1-2.68,2.39A7.07,7.07,0,0,1,556.65,424.33ZM538.37,411.9v8.77h8a8.09,8.09,0,0,0,4.64-1.12,4.09,4.09,0,0,0,0-6.53,8.09,8.09,0,0,0-4.64-1.12Zm14,20a3.81,3.81,0,0,0,1.69-3.45q0-4.57-6.7-4.58h-9V433h9A9.27,9.27,0,0,0,552.38,431.87Z" transform="translate(-229.88 -184.19)" fill="#fff"/><path d="M589.38,429.28H574.82l-3,6.85h-4l12.41-27.4h3.88l12.45,27.4h-4.12ZM588,426.15l-5.91-13.43-5.91,13.43Z" transform="translate(-229.88 -184.19)" fill="#fff"/><path d="M632,408.73v27.4h-3.21L612.32,415.7v20.43h-3.91v-27.4h3.21l16.44,20.44V408.73Z" transform="translate(-229.88 -184.19)" fill="#fff"/><path d="M667.92,432.73v3.4H648v-27.4h19.34v3.41H651.94v8.41h13.75v3.33H651.94v8.85Z" transform="translate(-229.88 -184.19)" fill="#fff"/></g><g id="Greener"><path d="M390,505.62h20.78V540a54,54,0,0,1-16.38,7.84,65.26,65.26,0,0,1-18.52,2.73,49.48,49.48,0,0,1-23.5-5.52A41.07,41.07,0,0,1,336,529.72a44.89,44.89,0,0,1,0-44.63,40.88,40.88,0,0,1,16.5-15.37,50.7,50.7,0,0,1,23.85-5.52,53,53,0,0,1,20.89,3.92,40.21,40.21,0,0,1,15.43,11.27l-14.95,13.53q-8.43-9.26-20.18-9.26-10.68,0-17.21,6.47t-6.53,17.27a25.09,25.09,0,0,0,3,12.29,21.23,21.23,0,0,0,8.31,8.42,24.32,24.32,0,0,0,12.22,3,30,30,0,0,0,12.7-2.73Z" transform="translate(-229.88 -184.19)" fill="#fff"/><path d="M459.09,526.87H446.27V549h-23.5V465.86h38a47.45,47.45,0,0,1,19.59,3.74,29,29,0,0,1,12.82,10.68,29.35,29.35,0,0,1,4.51,16.32,28.93,28.93,0,0,1-4.22,15.73,28.48,28.48,0,0,1-12,10.5L499.33,549H474.17Zm11.16-39.29c-2.45-2.14-6.1-3.2-10.92-3.2H446.27v24.33h13.06c4.82,0,8.47-1,10.92-3.15s3.68-5.08,3.68-9S472.7,489.72,470.25,487.58Z" transform="translate(-229.88 -184.19)" fill="#fff"/><path d="M574.34,530.79V549h-66.7V465.86H572.8V484H530.9v14h36.91v17.56H530.9v15.2Z" transform="translate(-229.88 -184.19)" fill="#fff"/><path d="M651.13,530.79V549h-66.7V465.86h65.16V484h-41.9v14h36.92v17.56H607.69v15.2Z" transform="translate(-229.88 -184.19)" fill="#fff"/><path d="M740.27,465.86V549H720.93l-36.68-44.28V549h-23V465.86h19.35l36.68,44.27V465.86Z" transform="translate(-229.88 -184.19)" fill="#fff"/></g><g id="Future"><path d="M325,578.73V597h36.67v18.16H325v28.48h-23.5V560.57h65.16v18.16Z" transform="translate(-229.88 -184.19)" fill="#fff"/><path d="M384.25,635.23Q374,625.14,374,606.62v-46h23.5v45.34q0,19.94,15.78,19.94t15.67-19.94V560.57h23.15v46q0,18.51-10.27,28.61T413,645.31Q394.52,645.31,384.25,635.23Z" transform="translate(-229.88 -184.19)" fill="#fff"/><path d="M481.41,579.2H455.89V560.57h74.42V579.2h-25.4v64.45h-23.5Z" transform="translate(-229.88 -184.19)" fill="#fff"/><path d="M544.37,635.23q-10.26-10.1-10.26-28.61v-46h23.5v45.34q0,19.94,15.78,19.94t15.67-19.94V560.57h23.15v46q0,18.51-10.27,28.61t-28.78,10.08Q554.64,645.31,544.37,635.23Z" transform="translate(-229.88 -184.19)" fill="#fff"/><path d="M661.46,621.58H648.64v22.07h-23.5V560.57h38a47.29,47.29,0,0,1,19.59,3.74A29,29,0,0,1,695.53,575,29.35,29.35,0,0,1,700,591.31,29,29,0,0,1,695.82,607a28.42,28.42,0,0,1-12,10.5l17.92,26.11H676.54Zm11.16-39.29q-3.68-3.21-10.92-3.21H648.64v24.34H661.7q7.24,0,10.92-3.15t3.68-9Q676.3,585.49,672.62,582.29Z" transform="translate(-229.88 -184.19)" fill="#fff"/><path d="M776.71,625.49v18.16H710V560.57h65.16v18.16h-41.9v14h36.91V610.3H733.27v15.19Z" transform="translate(-229.88 -184.19)" fill="#fff"/></g></svg>