<svg id="Layer_27" data-name="Layer 27" xmlns="http://www.w3.org/2000/svg" xmlns:xlink="http://www.w3.org/1999/xlink" viewBox="0 0 904.99 737.06"><defs><linearGradient id="linear-gradient" x1="367.26" y1="398.36" x2="393.88" y2="371.73" gradientUnits="userSpaceOnUse"><stop offset="0" stop-color="#3dc4b4"/><stop offset="1" stop-color="#82cc83"/></linearGradient><linearGradient id="linear-gradient-2" x1="324.99" y1="403.25" x2="362.49" y2="365.75" xlink:href="#linear-gradient"/><linearGradient id="linear-gradient-3" x1="733.85" y1="564.81" x2="760.48" y2="538.19" xlink:href="#linear-gradient"/><linearGradient id="linear-gradient-4" x1="691.58" y1="569.71" x2="729.08" y2="532.21" xlink:href="#linear-gradient"/><linearGradient id="linear-gradient-5" x1="632.02" y1="51.36" x2="658.65" y2="24.73" xlink:href="#linear-gradient"/><linearGradient id="linear-gradient-6" x1="589.75" y1="56.25" x2="627.25" y2="18.75" xlink:href="#linear-gradient"/><linearGradient id="linear-gradient-7" x1="462.3" y1="277.11" x2="488.93" y2="250.49" xlink:href="#linear-gradient"/><linearGradient id="linear-gradient-8" x1="420.03" y1="282.01" x2="457.53" y2="244.51" xlink:href="#linear-gradient"/><linearGradient id="linear-gradient-9" x1="250.97" y1="353.46" x2="264.24" y2="340.19" xlink:href="#linear-gradient"/><linearGradient id="linear-gradient-10" x1="197.89" y1="364.5" x2="211.16" y2="351.23" xlink:href="#linear-gradient"/><linearGradient id="linear-gradient-11" x1="201.5" y1="286.76" x2="214.77" y2="273.49" xlink:href="#linear-gradient"/><linearGradient id="linear-gradient-12" x1="286.18" y1="419.68" x2="299.45" y2="406.41" xlink:href="#linear-gradient"/><linearGradient id="linear-gradient-13" x1="635.98" y1="647.82" x2="649.25" y2="634.55" xlink:href="#linear-gradient"/><linearGradient id="linear-gradient-14" x1="694.4" y1="675.29" x2="707.67" y2="662.02" xlink:href="#linear-gradient"/><linearGradient id="linear-gradient-15" x1="856.43" y1="569.43" x2="869.7" y2="556.16" xlink:href="#linear-gradient"/><linearGradient id="linear-gradient-16" x1="826.62" y1="289.85" x2="839.89" y2="276.58" xlink:href="#linear-gradient"/><linearGradient id="linear-gradient-17" x1="671.5" y1="612.54" x2="684.77" y2="599.27" xlink:href="#linear-gradient"/><linearGradient id="linear-gradient-18" x1="398.37" y1="569.57" x2="411.64" y2="556.3" xlink:href="#linear-gradient"/><linearGradient id="linear-gradient-19" x1="803.06" y1="198.48" x2="816.34" y2="185.21" xlink:href="#linear-gradient"/><linearGradient id="linear-gradient-20" x1="875.91" y1="231.58" x2="889.18" y2="218.31" xlink:href="#linear-gradient"/><linearGradient id="linear-gradient-21" x1="709.37" y1="319.45" x2="722.64" y2="306.18" xlink:href="#linear-gradient"/><linearGradient id="linear-gradient-22" x1="219.96" y1="452.79" x2="233.23" y2="439.52" xlink:href="#linear-gradient"/><linearGradient id="linear-gradient-23" x1="109.59" y1="419.68" x2="122.86" y2="406.41" xlink:href="#linear-gradient"/><linearGradient id="linear-gradient-24" x1="142.7" y1="342.42" x2="155.97" y2="329.15" xlink:href="#linear-gradient"/><linearGradient id="linear-gradient-25" x1="115.47" y1="210.61" x2="128.74" y2="197.34" xlink:href="#linear-gradient"/><linearGradient id="linear-gradient-26" x1="45.35" y1="140.57" x2="58.62" y2="127.3" xlink:href="#linear-gradient"/></defs><path d="M832.19,399l3-3a12.15,12.15,0,0,1,8.6-3.56h0a12.15,12.15,0,0,0,8.59-3.56l4.46-4.46a12.17,12.17,0,0,1,8.6-3.56h9.2a12.15,12.15,0,0,1,8.6,3.56l.82.82a12.17,12.17,0,0,0,8.6,3.56h.43a12.17,12.17,0,0,1,8.79,3.76L908.1,399Z" transform="translate(-115.36 -163.57)" fill="#90e2d8"/><path d="M771,449.22a4.66,4.66,0,0,1,9.32,0" transform="translate(-115.36 -163.57)" fill="#6cc993"/><path d="M767.75,449.22a2.58,2.58,0,1,1,5.15,0" transform="translate(-115.36 -163.57)" fill="#6cc993"/><polygon points="380.57 358.42 355.23 386.33 405.91 386.33 380.57 358.42" fill="url(#linear-gradient)"/><polygon points="308.99 358.42 303.34 386.33 314.64 386.33 308.99 358.42" fill="#007e83"/><polygon points="369.45 358.42 363.8 386.33 375.1 386.33 369.45 358.42" fill="#007e83"/><polygon points="299.41 366.91 295.48 386.33 303.34 386.33 299.41 366.91" fill="#007e83"/><polygon points="343.74 347 308.05 386.31 379.43 386.31 343.74 347" fill="url(#linear-gradient-2)"/><polygon points="376.23 366.91 372.3 386.33 380.16 386.33 376.23 366.91" fill="#007e83"/><polygon points="398.64 366.91 394.71 386.33 402.57 386.33 398.64 366.91" fill="#007e83"/><polygon points="747.16 524.87 721.82 552.79 772.5 552.79 747.16 524.87" fill="url(#linear-gradient-3)"/><polygon points="675.59 524.87 669.94 552.79 681.23 552.79 675.59 524.87" fill="#007e83"/><polygon points="736.04 524.87 730.4 552.79 741.7 552.79 736.04 524.87" fill="#007e83"/><polygon points="666.01 533.37 662.08 552.79 669.94 552.79 666.01 533.37" fill="#007e83"/><polygon points="710.33 513.46 674.64 552.77 746.02 552.77 710.33 513.46" fill="url(#linear-gradient-4)"/><polygon points="742.82 533.37 738.89 552.79 746.75 552.79 742.82 533.37" fill="#007e83"/><polygon points="765.23 533.37 761.3 552.79 769.16 552.79 765.23 533.37" fill="#007e83"/><polygon points="645.33 11.42 619.99 39.33 670.67 39.33 645.33 11.42" fill="url(#linear-gradient-5)"/><polygon points="573.75 11.42 568.1 39.33 579.4 39.33 573.75 11.42" fill="#007e83"/><polygon points="634.21 11.42 628.56 39.33 639.86 39.33 634.21 11.42" fill="#007e83"/><polygon points="564.17 19.91 560.25 39.33 568.1 39.33 564.17 19.91" fill="#007e83"/><polygon points="608.5 0 572.81 39.31 644.19 39.31 608.5 0" fill="url(#linear-gradient-6)"/><polygon points="640.99 19.91 637.06 39.33 644.92 39.33 640.99 19.91" fill="#007e83"/><polygon points="663.4 19.91 659.47 39.33 667.33 39.33 663.4 19.91" fill="#007e83"/><polygon points="475.61 237.17 450.27 265.08 500.95 265.08 475.61 237.17" fill="url(#linear-gradient-7)"/><polygon points="404.03 237.17 398.38 265.08 409.68 265.08 404.03 237.17" fill="#007e83"/><polygon points="464.49 237.17 458.84 265.08 470.14 265.08 464.49 237.17" fill="#007e83"/><polygon points="394.45 245.67 390.52 265.08 398.38 265.08 394.45 245.67" fill="#007e83"/><polygon points="438.78 225.75 403.09 265.07 474.47 265.07 438.78 225.75" fill="url(#linear-gradient-8)"/><polygon points="471.27 245.67 467.34 265.08 475.2 265.08 471.27 245.67" fill="#007e83"/><polygon points="493.68 245.67 489.75 265.08 497.61 265.08 493.68 245.67" fill="#007e83"/><polygon points="345.76 399.77 339.06 432.88 352.46 432.88 345.76 399.77" fill="#007e83"/><polygon points="675.7 689.2 668.99 722.31 682.4 722.31 675.7 689.2" fill="#007e83"/><polygon points="434.08 547.92 427.38 581.03 440.78 581.03 434.08 547.92" fill="#007e83"/><polygon points="839.49 585.94 832.79 619.05 846.19 619.05 839.49 585.94" fill="#007e83"/><polygon points="855.71 288.51 849 321.62 862.41 321.62 855.71 288.51" fill="#007e83"/><polygon points="671.44 630.23 664.74 663.34 678.14 663.34 671.44 630.23" fill="#007e83"/><polygon points="751.24 140.94 744.53 174.04 757.94 174.04 751.24 140.94" fill="#007e83"/><polygon points="882.54 162.02 875.84 195.13 889.24 195.13 882.54 162.02" fill="#007e83"/><polygon points="315.02 421.85 308.31 454.95 321.72 454.95 315.02 421.85" fill="#007e83"/><polygon points="191.25 311.48 184.55 344.59 197.95 344.59 191.25 311.48" fill="#007e83"/><polygon points="85.93 163.81 79.23 196.92 92.63 196.92 85.93 163.81" fill="#007e83"/><polygon points="281.91 322.52 275.21 355.63 288.61 355.63 281.91 322.52" fill="#007e83"/><polygon points="248.8 289.41 242.1 322.52 255.5 322.52 248.8 289.41" fill="#007e83"/><polygon points="130.61 234.36 123.91 267.47 137.31 267.47 130.61 234.36" fill="#007e83"/><polygon points="109.33 277.48 102.62 310.59 116.03 310.59 109.33 277.48" fill="#007e83"/><polygon points="191.25 410.81 184.55 443.92 197.95 443.92 191.25 410.81" fill="#007e83"/><polygon points="105.33 366.66 98.62 399.77 112.03 399.77 105.33 366.66" fill="#007e83"/><polygon points="270.87 421.85 266.4 443.92 275.34 443.92 270.87 421.85" fill="#007e83"/><polygon points="359.03 443.92 354.56 465.99 363.5 465.99 359.03 443.92" fill="#007e83"/><polygon points="613.17 660.3 608.7 682.37 617.64 682.37 613.17 660.3" fill="#007e83"/><polygon points="705.5 606.21 701.04 628.28 709.97 628.28 705.5 606.21" fill="#007e83"/><polygon points="440.48 520.16 436.01 542.23 444.95 542.23 440.48 520.16" fill="#007e83"/><polygon points="743.17 277.48 738.7 299.55 747.64 299.55 743.17 277.48" fill="#007e83"/><polygon points="707.41 240.6 702.95 262.68 711.88 262.68 707.41 240.6" fill="#007e83"/><polygon points="851.24 480.68 846.77 502.75 855.71 502.75 851.24 480.68" fill="#007e83"/><polygon points="755.13 247.26 750.66 269.33 759.6 269.33 755.13 247.26" fill="#007e83"/><polygon points="900.52 135.72 896.05 157.79 904.99 157.79 900.52 135.72" fill="#007e83"/><polygon points="650.14 670.13 645.67 692.21 654.61 692.21 650.14 670.13" fill="#007e83"/><polygon points="202.42 377.7 197.95 399.77 206.89 399.77 202.42 377.7" fill="#007e83"/><polygon points="235.53 344.59 231.06 366.66 240 366.66 235.53 344.59" fill="#007e83"/><polygon points="106.3 131.7 101.83 153.78 110.77 153.78 106.3 131.7" fill="#007e83"/><polygon points="4.47 129.24 0 151.32 8.94 151.32 4.47 129.24" fill="#007e83"/><polygon points="257.6 333.56 253.13 355.63 262.07 355.63 257.6 333.56" fill="url(#linear-gradient-9)"/><polygon points="204.52 344.59 200.05 366.66 208.99 366.66 204.52 344.59" fill="url(#linear-gradient-10)"/><polygon points="208.13 266.86 203.66 288.93 212.6 288.93 208.13 266.86" fill="url(#linear-gradient-11)"/><polygon points="292.81 399.77 288.34 421.85 297.28 421.85 292.81 399.77" fill="url(#linear-gradient-12)"/><polygon points="642.61 627.91 638.15 649.98 647.08 649.98 642.61 627.91" fill="url(#linear-gradient-13)"/><polygon points="701.04 655.38 696.57 677.46 705.5 677.46 701.04 655.38" fill="url(#linear-gradient-14)"/><polygon points="863.06 549.52 858.6 571.6 867.53 571.6 863.06 549.52" fill="url(#linear-gradient-15)"/><polygon points="833.26 269.95 828.79 292.02 837.72 292.02 833.26 269.95" fill="url(#linear-gradient-16)"/><polygon points="678.14 592.64 673.67 614.71 682.6 614.71 678.14 592.64" fill="url(#linear-gradient-17)"/><polygon points="405.01 549.66 400.54 571.74 409.47 571.74 405.01 549.66" fill="url(#linear-gradient-18)"/><polygon points="809.7 178.58 805.23 200.65 814.17 200.65 809.7 178.58" fill="url(#linear-gradient-19)"/><polygon points="882.54 211.67 878.08 233.75 887.01 233.75 882.54 211.67" fill="url(#linear-gradient-20)"/><polygon points="716 299.55 711.54 321.62 720.47 321.62 716 299.55" fill="url(#linear-gradient-21)"/><polygon points="226.59 432.88 222.13 454.95 231.06 454.95 226.59 432.88" fill="url(#linear-gradient-22)"/><polygon points="116.23 399.77 111.76 421.85 120.7 421.85 116.23 399.77" fill="url(#linear-gradient-23)"/><polygon points="149.34 322.52 144.87 344.59 153.81 344.59 149.34 322.52" fill="url(#linear-gradient-24)"/><polygon points="122.1 190.71 117.63 212.78 126.57 212.78 122.1 190.71" fill="url(#linear-gradient-25)"/><polygon points="51.99 120.67 47.52 142.74 56.46 142.74 51.99 120.67" fill="url(#linear-gradient-26)"/><polygon points="147.24 399.77 142.77 421.85 151.7 421.85 147.24 399.77" fill="#007e83"/><polygon points="136.2 432.88 131.73 454.95 140.67 454.95 136.2 432.88" fill="#007e83"/><polygon points="226.72 388.74 220.02 421.85 233.43 421.85 226.72 388.74" fill="#007e83"/><polygon points="625.01 703.95 618.31 737.06 631.71 737.06 625.01 703.95" fill="#007e83"/><polygon points="672.14 285.64 660.98 285.64 660.98 271.97 666.56 266.63 672.14 271.97 672.14 285.64" fill="#008e84"/><polygon points="687.16 285.64 687.16 271.97 681.58 266.63 666.56 266.63 672.14 271.97 672.14 285.64 687.16 285.64" fill="#7ecc85"/><circle cx="666.5" cy="271.97" r="1.16" fill="#6cc993"/><polygon points="666.56 266.63 672.14 271.97 687.16 271.97 681.58 266.63 666.56 266.63" fill="#edf9f7"/><polygon points="676.29 266.63 677.83 268.11 677.83 263.22 676.29 263.22 676.29 266.63" fill="#008e84"/><rect x="677.83" y="263.22" width="1.99" height="4.88" fill="#7ecc85"/><rect x="675.51" y="278.8" width="2.48" height="2.48" fill="#b1e5b1"/><rect x="665.32" y="278.8" width="2.48" height="6.83" fill="#6cc993"/><rect x="681.33" y="278.8" width="2.48" height="2.48" fill="#b1e5b1"/><polygon points="647.48 82.65 636.31 82.65 636.31 68.98 641.89 63.64 647.48 68.98 647.48 82.65" fill="#008e84"/><polygon points="662.5 82.65 662.5 68.98 656.91 63.64 641.89 63.64 647.48 68.98 647.48 82.65 662.5 82.65" fill="#7ecc85"/><circle cx="641.83" cy="68.98" r="1.16" fill="#6cc993"/><polygon points="641.89 63.64 647.48 68.98 662.5 68.98 656.91 63.64 641.89 63.64" fill="#edf9f7"/><polygon points="651.63 63.64 653.16 65.11 653.16 60.23 651.63 60.23 651.63 63.64" fill="#008e84"/><rect x="653.16" y="60.23" width="1.99" height="4.88" fill="#7ecc85"/><rect x="650.84" y="75.81" width="2.48" height="2.48" fill="#b1e5b1"/><rect x="640.66" y="75.81" width="2.48" height="6.83" fill="#6cc993"/><rect x="656.67" y="75.81" width="2.48" height="2.48" fill="#b1e5b1"/><polygon points="843.11 388.26 854.28 388.26 854.28 374.59 848.7 369.25 843.11 374.59 843.11 388.26" fill="#008e84"/><polygon points="828.1 388.26 828.1 374.59 833.68 369.25 848.7 369.25 843.11 374.59 843.11 388.26 828.1 388.26" fill="#7ecc85"/><circle cx="848.76" cy="374.59" r="1.16" fill="#6cc993"/><polygon points="848.7 369.25 843.11 374.59 828.1 374.59 833.68 369.25 848.7 369.25" fill="#edf9f7"/><polygon points="838.97 369.25 837.43 370.72 837.43 365.84 838.97 365.84 838.97 369.25" fill="#008e84"/><rect x="950.8" y="529.41" width="1.99" height="4.88" transform="translate(1788.22 900.13) rotate(-180)" fill="#7ecc85"/><rect x="952.63" y="544.99" width="2.48" height="2.48" transform="translate(1792.37 928.88) rotate(-180)" fill="#b1e5b1"/><rect x="962.81" y="544.99" width="2.48" height="6.83" transform="translate(1812.75 933.23) rotate(-180)" fill="#6cc993"/><rect x="946.8" y="544.99" width="2.48" height="2.48" transform="translate(1780.73 928.88) rotate(-180)" fill="#b1e5b1"/><polygon points="765.96 429.21 754.79 429.21 754.79 415.54 760.37 410.2 765.96 415.54 765.96 429.21" fill="#008e84"/><polygon points="780.97 429.21 780.97 415.54 775.39 410.2 760.37 410.2 765.96 415.54 765.96 429.21 780.97 429.21" fill="#7ecc85"/><circle cx="760.31" cy="415.54" r="1.16" fill="#6cc993"/><polygon points="760.37 410.2 765.96 415.54 780.97 415.54 775.39 410.2 760.37 410.2" fill="#edf9f7"/><polygon points="770.1 410.2 771.64 411.67 771.64 406.79 770.1 406.79 770.1 410.2" fill="#008e84"/><rect x="771.64" y="406.79" width="1.99" height="4.88" fill="#7ecc85"/><rect x="769.32" y="422.37" width="2.48" height="2.48" fill="#b1e5b1"/><rect x="759.13" y="422.37" width="2.48" height="6.83" fill="#6cc993"/><rect x="775.14" y="422.37" width="2.48" height="2.48" fill="#b1e5b1"/><polygon points="582.58 174.78 593.75 174.78 593.75 155.51 588.16 150.17 582.58 155.51 582.58 174.78" fill="#7ecc85"/><polygon points="567.56 174.78 567.56 155.51 573.15 150.17 588.16 150.17 582.58 155.51 582.58 174.78 567.56 174.78" fill="#008e84"/><circle cx="588.23" cy="155.51" r="1.16" fill="#b1e5b1"/><polygon points="588.16 150.17 582.58 155.51 567.56 155.51 573.15 150.17 588.16 150.17" fill="#edf9f7"/><polygon points="578.43 150.17 576.89 151.64 576.89 146.76 578.43 146.76 578.43 150.17" fill="#008e84"/><rect x="690.27" y="310.33" width="1.99" height="4.88" transform="translate(1267.16 461.97) rotate(-180)" fill="#003d47"/><rect x="692.1" y="331.51" width="2.48" height="2.48" transform="translate(1271.31 501.92) rotate(-180)" fill="#6cc993"/><rect x="702.28" y="331.51" width="2.48" height="6.83" transform="translate(1291.69 506.28) rotate(-180)" fill="#b1e5b1"/><rect x="686.27" y="331.51" width="2.48" height="2.48" transform="translate(1259.67 501.92) rotate(-180)" fill="#6cc993"/><rect x="692.1" y="323.57" width="2.48" height="2.48" transform="translate(1271.31 486.04) rotate(-180)" fill="#6cc993"/><rect x="702.35" y="323.57" width="2.48" height="2.48" transform="translate(1291.82 486.04) rotate(-180)" fill="#b1e5b1"/><rect x="686.27" y="323.57" width="2.48" height="2.48" transform="translate(1259.67 486.04) rotate(-180)" fill="#6cc993"/><polygon points="607.61 534.63 618.77 534.63 618.77 515.36 613.19 510.02 607.61 515.36 607.61 534.63" fill="#7ecc85"/><polygon points="592.59 534.63 592.59 515.36 598.17 510.02 613.19 510.02 607.61 515.36 607.61 534.63 592.59 534.63" fill="#008e84"/><circle cx="613.26" cy="515.36" r="1.16" fill="#b1e5b1"/><polygon points="613.19 510.02 607.61 515.36 592.59 515.36 598.17 510.02 613.19 510.02" fill="#edf9f7"/><polygon points="603.46 510.02 601.92 511.49 601.92 506.61 603.46 506.61 603.46 510.02" fill="#008e84"/><rect x="715.29" y="670.18" width="1.99" height="4.88" transform="translate(1317.21 1181.68) rotate(-180)" fill="#003d47"/><rect x="717.12" y="691.36" width="2.48" height="2.48" transform="translate(1321.37 1221.63) rotate(-180)" fill="#6cc993"/><rect x="727.31" y="691.36" width="2.48" height="6.83" transform="translate(1341.74 1225.98) rotate(-180)" fill="#b1e5b1"/><rect x="711.3" y="691.36" width="2.48" height="2.48" transform="translate(1309.72 1221.63) rotate(-180)" fill="#6cc993"/><rect x="717.12" y="683.43" width="2.48" height="2.48" transform="translate(1321.37 1205.75) rotate(-180)" fill="#6cc993"/><rect x="727.37" y="683.43" width="2.48" height="2.48" transform="translate(1341.87 1205.75) rotate(-180)" fill="#b1e5b1"/><rect x="711.3" y="683.43" width="2.48" height="2.48" transform="translate(1309.72 1205.75) rotate(-180)" fill="#6cc993"/><polygon points="645.59 493.93 634.42 493.93 634.42 480.26 640 474.92 645.59 480.26 645.59 493.93" fill="#007e83"/><polygon points="660.61 493.93 660.61 480.26 655.02 474.92 640 474.92 645.59 480.26 645.59 493.93 660.61 493.93" fill="#90e2d8"/><circle cx="639.94" cy="480.26" r="1.16" fill="#3eb7ae"/><polygon points="640 474.92 645.59 480.26 660.61 480.26 655.02 474.92 640 474.92" fill="#edf9f7"/><polygon points="649.74 474.92 651.27 476.39 651.27 471.51 649.74 471.51 649.74 474.92" fill="#007e83"/><rect x="651.27" y="471.51" width="1.99" height="4.88" fill="#90e2d8"/><rect x="648.95" y="487.09" width="2.48" height="2.48" fill="#3eb7ae"/><rect x="638.77" y="487.09" width="2.48" height="6.83" fill="#3eb7ae"/><rect x="654.78" y="487.09" width="2.48" height="2.48" fill="#3eb7ae"/><polygon points="693.65 176.08 704.82 176.08 704.82 162.41 699.23 157.07 693.65 162.41 693.65 176.08" fill="#007e83"/><polygon points="678.63 176.08 678.63 162.41 684.22 157.07 699.23 157.07 693.65 162.41 693.65 176.08 678.63 176.08" fill="#90e2d8"/><circle cx="699.3" cy="162.41" r="1.16" fill="#3eb7ae"/><polygon points="699.23 157.07 693.65 162.41 678.63 162.41 684.22 157.07 699.23 157.07" fill="#edf9f7"/><polygon points="689.5 157.07 687.96 158.54 687.96 153.66 689.5 153.66 689.5 157.07" fill="#007e83"/><rect x="801.33" y="317.23" width="1.99" height="4.88" transform="translate(1489.3 475.77) rotate(-180)" fill="#90e2d8"/><rect x="803.16" y="332.81" width="2.48" height="2.48" transform="translate(1493.45 504.52) rotate(-180)" fill="#3eb7ae"/><rect x="813.35" y="332.81" width="2.48" height="6.83" transform="translate(1513.82 508.87) rotate(-180)" fill="#3eb7ae"/><rect x="797.34" y="332.81" width="2.48" height="2.48" transform="translate(1481.8 504.52) rotate(-180)" fill="#3eb7ae"/><polygon points="798.04 501.22 786.87 501.22 786.87 487.55 792.45 482.21 798.04 487.55 798.04 501.22" fill="#007e83"/><polygon points="813.05 501.22 813.05 487.55 807.47 482.21 792.45 482.21 798.04 487.55 798.04 501.22 813.05 501.22" fill="#90e2d8"/><circle cx="792.39" cy="487.55" r="1.16" fill="#3eb7ae"/><polygon points="792.45 482.21 798.04 487.55 813.05 487.55 807.47 482.21 792.45 482.21" fill="#edf9f7"/><polygon points="802.18 482.21 803.72 483.68 803.72 478.8 802.18 478.8 802.18 482.21" fill="#007e83"/><rect x="803.72" y="478.8" width="1.99" height="4.88" fill="#90e2d8"/><rect x="801.4" y="494.38" width="2.48" height="2.48" fill="#3eb7ae"/><rect x="791.22" y="494.38" width="2.48" height="6.83" fill="#3eb7ae"/><rect x="807.22" y="494.38" width="2.48" height="2.48" fill="#3eb7ae"/><polygon points="705.58 474.94 694.41 474.94 694.41 455.67 700 450.33 705.58 455.67 705.58 474.94" fill="#90e2d8"/><polygon points="720.6 474.94 720.6 455.67 715.01 450.33 700 450.33 705.58 455.67 705.58 474.94 720.6 474.94" fill="#007e83"/><circle cx="699.93" cy="455.67" r="1.16" fill="#007e83"/><polygon points="700 450.33 705.58 455.67 720.6 455.67 715.01 450.33 700 450.33" fill="#edf9f7"/><polygon points="709.73 450.33 711.26 451.8 711.26 446.92 709.73 446.92 709.73 450.33" fill="#007e83"/><rect x="711.26" y="446.92" width="1.99" height="4.88" fill="#003d47"/><rect x="708.94" y="468.1" width="2.48" height="2.48" fill="#3eb7ae"/><rect x="698.76" y="468.1" width="2.48" height="6.83" fill="#3eb7ae"/><rect x="714.77" y="468.1" width="2.48" height="2.48" fill="#3eb7ae"/><rect x="708.94" y="460.16" width="2.48" height="2.48" fill="#3eb7ae"/><rect x="698.69" y="460.16" width="2.48" height="2.48" fill="#3eb7ae"/><rect x="714.77" y="460.16" width="2.48" height="2.48" fill="#3eb7ae"/><polygon points="691.45 405.07 702.61 405.07 702.61 385.8 697.03 380.46 691.45 385.8 691.45 405.07" fill="#90e2d8"/><polygon points="676.43 405.07 676.43 385.8 682.01 380.46 697.03 380.46 691.45 385.8 691.45 405.07 676.43 405.07" fill="#007e83"/><circle cx="697.1" cy="385.8" r="1.16" fill="#007e83"/><polygon points="697.03 380.46 691.45 385.8 676.43 385.8 682.01 380.46 697.03 380.46" fill="#edf9f7"/><polygon points="687.3 380.46 685.76 381.93 685.76 377.05 687.3 377.05 687.3 380.46" fill="#007e83"/><rect x="799.13" y="540.62" width="1.99" height="4.88" transform="translate(1484.89 922.55) rotate(-180)" fill="#003d47"/><rect x="800.96" y="561.8" width="2.48" height="2.48" transform="translate(1489.04 962.5) rotate(-180)" fill="#3eb7ae"/><rect x="811.15" y="561.8" width="2.48" height="6.83" transform="translate(1509.42 966.86) rotate(-180)" fill="#3eb7ae"/><rect x="795.14" y="561.8" width="2.48" height="2.48" transform="translate(1477.4 962.5) rotate(-180)" fill="#3eb7ae"/><rect x="800.96" y="553.86" width="2.48" height="2.48" transform="translate(1489.04 946.63) rotate(-180)" fill="#3eb7ae"/><rect x="811.21" y="553.86" width="2.48" height="2.48" transform="translate(1509.55 946.63) rotate(-180)" fill="#3eb7ae"/><rect x="795.14" y="553.86" width="2.48" height="2.48" transform="translate(1477.4 946.63) rotate(-180)" fill="#3eb7ae"/><path d="M698.39,864.44a3.4,3.4,0,1,1-5.79-2A7.06,7.06,0,0,1,698.39,864.44Zm9.82-2a7.05,7.05,0,1,0-2,5.78A7,7,0,0,0,708.21,862.42Z" transform="translate(-115.36 -163.57)" fill="#007e83"/><path d="M402.93,633.88a7.06,7.06,0,0,1,2,5.79,7.06,7.06,0,0,1-7.8-7.81A7,7,0,0,1,402.93,633.88Zm9.83-2a7.06,7.06,0,0,0-7.81,7.81,7.06,7.06,0,0,0,7.81-7.81Z" transform="translate(-115.36 -163.57)" fill="#007e83"/><path d="M270.17,539.39a7.06,7.06,0,0,1,2,5.79,7.06,7.06,0,0,1-7.8-7.81A7.05,7.05,0,0,1,270.17,539.39Zm9.82-2a7.05,7.05,0,0,0-7.8,7.81,7.06,7.06,0,0,0,7.8-7.81Z" transform="translate(-115.36 -163.57)" fill="#007e83"/><path d="M199.27,272.47a7.07,7.07,0,0,1,2,5.78,7.05,7.05,0,0,1-7.8-7.8A7.05,7.05,0,0,1,199.27,272.47Zm9.82-2a7.05,7.05,0,0,0-7.8,7.8,7.05,7.05,0,0,0,7.8-7.8Z" transform="translate(-115.36 -163.57)" fill="#007e83"/><path d="M287.52,629.94a7,7,0,0,1,2,5.78,7.05,7.05,0,0,1-7.8-7.8A7,7,0,0,1,287.52,629.94Zm9.83-2a7.06,7.06,0,0,0-7.81,7.8,7.05,7.05,0,0,0,7.81-7.8Z" transform="translate(-115.36 -163.57)" fill="#007e83"/><path d="M861.59,783.86a3.4,3.4,0,1,1-5.78-2A7,7,0,0,1,861.59,783.86Zm9.82-2a7.05,7.05,0,1,0-2,5.78A7,7,0,0,0,871.41,781.84Z" transform="translate(-115.36 -163.57)" fill="#7ecc85"/><path d="M577.83,727.31a7,7,0,0,1,2,5.78,7.05,7.05,0,0,1-7.8-7.8A7.05,7.05,0,0,1,577.83,727.31Zm9.82-2a7.05,7.05,0,0,0-7.8,7.8,7.05,7.05,0,0,0,7.8-7.8Z" transform="translate(-115.36 -163.57)" fill="#7ecc85"/><path d="M894.3,429.82a7,7,0,0,1,2,5.78,7.05,7.05,0,0,1-7.81-7.8A7,7,0,0,1,894.3,429.82Zm9.83-2a7.05,7.05,0,0,0-7.8,7.8,7.05,7.05,0,0,0,7.8-7.8Z" transform="translate(-115.36 -163.57)" fill="#7ecc85"/><path d="M371.7,561.47a7,7,0,0,1,2,5.78,7.05,7.05,0,0,1-7.81-7.81A7,7,0,0,1,371.7,561.47Zm9.83-2a7.06,7.06,0,0,0-7.8,7.81,7.05,7.05,0,0,0,7.8-7.81Z" transform="translate(-115.36 -163.57)" fill="#7ecc85"/><path d="M206.05,392.94a7,7,0,0,1,2,5.78,7.05,7.05,0,0,1-7.81-7.8A7,7,0,0,1,206.05,392.94Zm9.83-2a7.05,7.05,0,0,0-7.8,7.8,7.05,7.05,0,0,0,7.8-7.8Z" transform="translate(-115.36 -163.57)" fill="#7ecc85"/><path d="M278,444a7.07,7.07,0,0,1,2,5.79,7.06,7.06,0,0,1-7.81-7.81A7,7,0,0,1,278,444Zm9.83-2a7.05,7.05,0,0,0-7.8,7.81,7.06,7.06,0,0,0,7.8-7.81Z" transform="translate(-115.36 -163.57)" fill="#7ecc85"/><path d="M341.89,646.17a7.07,7.07,0,0,1,2,5.79,7.06,7.06,0,0,1-7.81-7.81A7,7,0,0,1,341.89,646.17Zm9.83-2a7.05,7.05,0,0,0-7.8,7.81,7.06,7.06,0,0,0,7.8-7.81Z" transform="translate(-115.36 -163.57)" fill="#7ecc85"/><path d="M909.39,710.1a3.4,3.4,0,1,1-5.78-2A7,7,0,0,1,909.39,710.1Zm9.83-2a7.05,7.05,0,1,0-2,5.78A7,7,0,0,0,919.22,708.08Z" transform="translate(-115.36 -163.57)" fill="#007e83"/><path d="M935.46,492.65a7,7,0,0,1,2,5.78,7.05,7.05,0,0,1-7.81-7.8A7,7,0,0,1,935.46,492.65Zm9.83-2a7.05,7.05,0,0,0-7.8,7.8,7.05,7.05,0,0,0,7.8-7.8Z" transform="translate(-115.36 -163.57)" fill="#007e83"/><path d="M515.9,761.73a7,7,0,0,1,2,5.78,7.05,7.05,0,0,1-7.8-7.8A7,7,0,0,1,515.9,761.73Zm9.83-2a7.06,7.06,0,0,0-7.81,7.8,7.05,7.05,0,0,0,7.81-7.8Z" transform="translate(-115.36 -163.57)" fill="#007e83"/><path d="M793.15,468.57a7,7,0,0,1,2,5.78,7.05,7.05,0,0,1-7.8-7.8A7,7,0,0,1,793.15,468.57Zm9.82-2a7.05,7.05,0,0,0-7.8,7.8,7.05,7.05,0,0,0,7.8-7.8Z" transform="translate(-115.36 -163.57)" fill="#007e83"/><path d="M797.76,638.51a4.66,4.66,0,0,1,9.32,0" transform="translate(-115.36 -163.57)" fill="#007e83"/><path d="M834.63,638.51a4.67,4.67,0,0,1,9.33,0" transform="translate(-115.36 -163.57)" fill="#3eb7ae"/><path d="M806.27,638.51a2.58,2.58,0,1,1,5.16,0" transform="translate(-115.36 -163.57)" fill="#007e83"/><path d="M923.82,664.78a4.66,4.66,0,0,1,9.32,0" transform="translate(-115.36 -163.57)" fill="#007e83"/><path d="M932.33,664.78a2.58,2.58,0,0,1,5.16,0" transform="translate(-115.36 -163.57)" fill="#007e83"/><polygon points="426.41 463.01 415.24 463.01 415.24 449.34 420.83 444 426.41 449.34 426.41 463.01" fill="#007e83"/><polygon points="441.43 463.01 441.43 449.34 435.85 444 420.83 444 426.41 449.34 426.41 463.01 441.43 463.01" fill="#90e2d8"/><circle cx="420.76" cy="449.34" r="1.16" fill="#3eb7ae"/><polygon points="420.83 444 426.41 449.34 441.43 449.34 435.85 444 420.83 444" fill="#edf9f7"/><polygon points="430.56 444 432.1 445.47 432.1 440.59 430.56 440.59 430.56 444" fill="#007e83"/><rect x="432.1" y="440.59" width="1.99" height="4.88" fill="#90e2d8"/><rect x="429.78" y="456.17" width="2.48" height="2.48" fill="#3eb7ae"/><rect x="419.59" y="456.17" width="2.48" height="6.83" fill="#3eb7ae"/><rect x="435.6" y="456.17" width="2.48" height="2.48" fill="#3eb7ae"/><path d="M552.19,626.57a4.66,4.66,0,1,1,9.32,0" transform="translate(-115.36 -163.57)" fill="#007e83"/><path d="M560.7,626.57a2.58,2.58,0,0,1,5.16,0" transform="translate(-115.36 -163.57)" fill="#007e83"/><polygon points="446.06 329.3 434.9 329.3 434.9 315.63 440.48 310.29 446.06 315.63 446.06 329.3" fill="#007e83"/><polygon points="461.08 329.3 461.08 315.63 455.5 310.29 440.48 310.29 446.06 315.63 446.06 329.3 461.08 329.3" fill="#90e2d8"/><circle cx="440.42" cy="315.63" r="1.16" fill="#3eb7ae"/><polygon points="440.48 310.29 446.06 315.63 461.08 315.63 455.5 310.29 440.48 310.29" fill="#edf9f7"/><polygon points="450.21 310.29 451.75 311.76 451.75 306.88 450.21 306.88 450.21 310.29" fill="#007e83"/><rect x="451.75" y="306.88" width="1.99" height="4.88" fill="#90e2d8"/><rect x="449.43" y="322.46" width="2.48" height="2.48" fill="#3eb7ae"/><rect x="439.24" y="322.46" width="2.48" height="6.83" fill="#3eb7ae"/><rect x="455.25" y="322.46" width="2.48" height="2.48" fill="#3eb7ae"/><path d="M538.91,492.86a4.66,4.66,0,1,1,9.32,0" transform="translate(-115.36 -163.57)" fill="#90e2d8"/><path d="M547.42,492.86a2.58,2.58,0,1,1,5.16,0" transform="translate(-115.36 -163.57)" fill="#90e2d8"/><path d="M831.42,638.51a2.58,2.58,0,0,1,5.16,0" transform="translate(-115.36 -163.57)" fill="#3eb7ae"/><polygon points="613.82 237.49 602.65 237.49 602.65 218.22 608.24 212.88 613.82 218.22 613.82 237.49" fill="#90e2d8"/><polygon points="628.84 237.49 628.84 218.22 623.25 212.88 608.24 212.88 613.82 218.22 613.82 237.49 628.84 237.49" fill="#007e83"/><circle cx="608.17" cy="218.22" r="1.16" fill="#007e83"/><polygon points="608.24 212.88 613.82 218.22 628.84 218.22 623.25 212.88 608.24 212.88" fill="#edf9f7"/><polygon points="617.97 212.88 619.5 214.35 619.5 209.47 617.97 209.47 617.97 212.88" fill="#007e83"/><rect x="619.5" y="209.47" width="1.99" height="4.88" fill="#003d47"/><rect x="617.18" y="230.65" width="2.48" height="2.48" fill="#3eb7ae"/><rect x="607" y="230.65" width="2.48" height="6.83" fill="#3eb7ae"/><rect x="623.01" y="230.65" width="2.48" height="2.48" fill="#3eb7ae"/><rect x="617.18" y="222.71" width="2.48" height="2.48" fill="#3eb7ae"/><rect x="606.93" y="222.71" width="2.48" height="2.48" fill="#3eb7ae"/><rect x="623.01" y="222.71" width="2.48" height="2.48" fill="#3eb7ae"/><path d="M706,401.06a4.66,4.66,0,0,1,9.32,0" transform="translate(-115.36 -163.57)" fill="#007e83"/><path d="M742.87,401.06a4.67,4.67,0,0,1,9.33,0" transform="translate(-115.36 -163.57)" fill="#3eb7ae"/><path d="M714.51,401.06a2.58,2.58,0,1,1,5.16,0" transform="translate(-115.36 -163.57)" fill="#007e83"/><path d="M739.66,401.06a2.58,2.58,0,0,1,5.16,0" transform="translate(-115.36 -163.57)" fill="#3eb7ae"/><path d="M734.29,698.2a4.66,4.66,0,1,1,9.32,0" transform="translate(-115.36 -163.57)" fill="#008e84"/><path d="M731.08,698.2a2.58,2.58,0,0,1,5.15,0" transform="translate(-115.36 -163.57)" fill="#008e84"/><polygon points="481.37 409.99 470.2 409.99 470.2 390.71 475.78 385.37 481.37 390.71 481.37 409.99" fill="#7ecc85"/><polygon points="496.38 409.99 496.38 390.71 490.8 385.37 475.78 385.37 481.37 390.71 481.37 409.99 496.38 409.99" fill="#008e84"/><circle cx="475.72" cy="390.71" r="1.16" fill="#b1e5b1"/><polygon points="475.78 385.37 481.37 390.71 496.38 390.71 490.8 385.37 475.78 385.37" fill="#edf9f7"/><polygon points="485.51 385.37 487.05 386.85 487.05 381.96 485.51 381.96 485.51 385.37" fill="#008e84"/><rect x="487.05" y="381.96" width="1.99" height="4.88" fill="#003d47"/><rect x="484.73" y="403.15" width="2.48" height="2.48" fill="#6cc993"/><rect x="474.55" y="403.15" width="2.48" height="6.83" fill="#b1e5b1"/><rect x="490.55" y="403.15" width="2.48" height="2.48" fill="#6cc993"/><rect x="484.73" y="395.21" width="2.48" height="2.48" fill="#6cc993"/><rect x="474.48" y="395.21" width="2.48" height="2.48" fill="#b1e5b1"/><rect x="490.55" y="395.21" width="2.48" height="2.48" fill="#6cc993"/><path d="M620.07,573.56a4.67,4.67,0,0,0-9.33,0" transform="translate(-115.36 -163.57)" fill="#7ecc85"/><path d="M589.46,573.56a4.66,4.66,0,0,0-9.32,0" transform="translate(-115.36 -163.57)" fill="#008e84"/><path d="M611.56,573.56a2.58,2.58,0,1,0-5.16,0" transform="translate(-115.36 -163.57)" fill="#7ecc85"/><path d="M592.67,573.56a2.58,2.58,0,0,0-5.16,0" transform="translate(-115.36 -163.57)" fill="#008e84"/><polygon points="483.09 660.86 471.93 660.86 471.93 641.59 477.51 636.25 483.09 641.59 483.09 660.86" fill="#7ecc85"/><polygon points="498.11 660.86 498.11 641.59 492.53 636.25 477.51 636.25 483.09 641.59 483.09 660.86 498.11 660.86" fill="#008e84"/><circle cx="477.44" cy="641.59" r="1.16" fill="#b1e5b1"/><polygon points="477.51 636.25 483.09 641.59 498.11 641.59 492.53 636.25 477.51 636.25" fill="#edf9f7"/><polygon points="487.24 636.25 488.78 637.72 488.78 632.84 487.24 632.84 487.24 636.25" fill="#008e84"/><rect x="488.78" y="632.84" width="1.99" height="4.88" fill="#003d47"/><rect x="486.46" y="654.02" width="2.48" height="2.48" fill="#6cc993"/><rect x="476.27" y="654.02" width="2.48" height="6.83" fill="#b1e5b1"/><rect x="492.28" y="654.02" width="2.48" height="2.48" fill="#6cc993"/><rect x="486.46" y="646.08" width="2.48" height="2.48" fill="#6cc993"/><rect x="476.21" y="646.08" width="2.48" height="2.48" fill="#b1e5b1"/><rect x="492.28" y="646.08" width="2.48" height="2.48" fill="#6cc993"/><path d="M621.79,824.43a4.66,4.66,0,0,0-9.32,0" transform="translate(-115.36 -163.57)" fill="#7ecc85"/><path d="M591.18,824.43a4.66,4.66,0,1,0-9.32,0" transform="translate(-115.36 -163.57)" fill="#008e84"/><path d="M613.28,824.43a2.58,2.58,0,0,0-5.16,0" transform="translate(-115.36 -163.57)" fill="#7ecc85"/><path d="M594.4,824.43a2.58,2.58,0,0,0-5.16,0" transform="translate(-115.36 -163.57)" fill="#008e84"/><path d="M685.42,536.54" transform="translate(-115.36 -163.57)" fill="none" stroke="#007e83" stroke-miterlimit="10"/><rect x="547.58" y="312.97" width="20.57" height="62.58" fill="#90e2d8"/><rect x="568.15" y="312.97" width="9.14" height="62.58" fill="#3eb7ae"/><rect x="551.46" y="316.85" width="2.48" height="2.48" fill="#3eb7ae"/><rect x="556.63" y="316.85" width="2.48" height="2.48" fill="#3eb7ae"/><rect x="551.46" y="322.47" width="2.48" height="2.48" fill="#3eb7ae"/><rect x="556.63" y="322.47" width="2.48" height="2.48" fill="#3eb7ae"/><rect x="551.46" y="328.08" width="2.48" height="2.48" fill="#3eb7ae"/><rect x="556.63" y="328.08" width="2.48" height="2.48" fill="#3eb7ae"/><rect x="551.46" y="333.7" width="2.48" height="2.48" fill="#3eb7ae"/><rect x="556.63" y="333.7" width="2.48" height="2.48" fill="#3eb7ae"/><rect x="551.46" y="339.32" width="2.48" height="2.48" fill="#3eb7ae"/><rect x="556.63" y="339.32" width="2.48" height="2.48" fill="#3eb7ae"/><rect x="551.46" y="344.94" width="2.48" height="2.48" fill="#3eb7ae"/><rect x="556.63" y="344.94" width="2.48" height="2.48" fill="#3eb7ae"/><rect x="561.8" y="316.85" width="2.48" height="2.48" fill="#3eb7ae"/><rect x="571.49" y="316.85" width="2.48" height="2.48" fill="#008e84"/><rect x="568.15" y="310.49" width="5.81" height="2.48" fill="#008e84"/><rect x="551.46" y="310.49" width="16.81" height="2.48" fill="#3eb7ae"/><rect x="571.49" y="322.47" width="2.48" height="2.48" fill="#008e84"/><rect x="571.49" y="328.08" width="2.48" height="2.48" fill="#008e84"/><rect x="571.49" y="333.7" width="2.48" height="2.48" fill="#008e84"/><rect x="571.49" y="339.32" width="2.48" height="2.48" fill="#008e84"/><rect x="571.49" y="344.94" width="2.48" height="2.48" fill="#008e84"/><rect x="571.49" y="350.55" width="2.48" height="2.48" fill="#008e84"/><rect x="571.49" y="356.17" width="2.48" height="2.48" fill="#008e84"/><rect x="561.8" y="322.47" width="2.48" height="2.48" fill="#3eb7ae"/><rect x="561.8" y="328.08" width="2.48" height="2.48" fill="#3eb7ae"/><rect x="561.8" y="333.7" width="2.48" height="2.48" fill="#3eb7ae"/><rect x="561.8" y="339.32" width="2.48" height="2.48" fill="#3eb7ae"/><rect x="561.8" y="344.94" width="2.48" height="2.48" fill="#3eb7ae"/><rect x="551.46" y="350.55" width="2.48" height="2.48" fill="#3eb7ae"/><rect x="556.63" y="350.55" width="2.48" height="2.48" fill="#3eb7ae"/><rect x="551.46" y="356.17" width="2.48" height="2.48" fill="#3eb7ae"/><rect x="556.63" y="356.17" width="2.48" height="2.48" fill="#3eb7ae"/><rect x="551.46" y="361.79" width="2.48" height="2.48" fill="#3eb7ae"/><rect x="556.63" y="361.79" width="2.48" height="2.48" fill="#3eb7ae"/><rect x="561.8" y="350.55" width="2.48" height="2.48" fill="#3eb7ae"/><rect x="561.8" y="356.17" width="2.48" height="2.48" fill="#3eb7ae"/><rect x="561.8" y="361.79" width="2.48" height="2.48" fill="#3eb7ae"/><rect x="604.32" y="295.94" width="17.45" height="79.6" fill="#3eb7ae"/><rect x="712.23" y="459.52" width="7.45" height="79.6" transform="translate(1316.55 835.06) rotate(180)" fill="#90e2d8"/><rect x="607.15" y="313.82" width="14.62" height="2.48" fill="#008e84"/><rect x="596.87" y="293.47" width="24.89" height="2.48" fill="#e6fffa"/><rect x="596.87" y="313.82" width="4.62" height="2.48" fill="#3eb7ae"/><rect x="596.87" y="319.1" width="4.62" height="2.48" fill="#3eb7ae"/><rect x="596.87" y="324.37" width="4.62" height="2.48" fill="#3eb7ae"/><rect x="596.87" y="329.65" width="4.62" height="2.48" fill="#3eb7ae"/><rect x="596.87" y="334.93" width="4.62" height="2.48" fill="#3eb7ae"/><rect x="596.87" y="340.2" width="7.45" height="2.48" fill="#3eb7ae"/><rect x="596.87" y="345.48" width="7.45" height="2.48" fill="#3eb7ae"/><rect x="596.87" y="350.75" width="7.45" height="2.48" fill="#3eb7ae"/><rect x="596.87" y="356.03" width="7.45" height="2.48" fill="#3eb7ae"/><rect x="596.87" y="361.3" width="7.45" height="2.48" fill="#3eb7ae"/><rect x="596.87" y="366.58" width="7.45" height="2.48" fill="#3eb7ae"/><rect x="607.15" y="319.1" width="14.62" height="2.48" fill="#008e84"/><rect x="607.15" y="324.37" width="14.62" height="2.48" fill="#008e84"/><rect x="607.15" y="329.65" width="14.62" height="2.48" fill="#008e84"/><rect x="607.15" y="334.93" width="14.62" height="2.48" fill="#008e84"/><rect x="604.32" y="340.2" width="17.45" height="2.48" fill="#008e84"/><rect x="604.32" y="345.48" width="17.45" height="2.48" fill="#008e84"/><rect x="604.32" y="350.77" width="17.45" height="2.48" fill="#008e84"/><rect x="604.32" y="356.07" width="17.45" height="2.48" fill="#008e84"/><rect x="604.32" y="361.3" width="17.45" height="2.48" fill="#008e84"/><rect x="604.32" y="366.53" width="17.45" height="2.48" fill="#008e84"/><polygon points="607.09 338.36 604.32 344.93 601.55 338.36 601.55 311.56 607.09 311.56 607.09 338.36" fill="#e6fffa"/><polygon points="601.55 311.56 596.88 295.94 621.77 295.94 607.09 311.56 601.55 311.56" fill="#e6fffa"/><polygon points="547.59 351.88 542.79 375.55 552.38 375.55 547.59 351.88" fill="#007e83"/><polygon points="621.69 351.88 616.9 375.55 626.49 375.55 621.69 351.88" fill="#007e83"/><polygon points="540.99 360.06 537.86 375.55 544.13 375.55 540.99 360.06" fill="#007e83"/><polygon points="627.56 360.06 624.42 375.55 630.7 375.55 627.56 360.06" fill="#007e83"/><path d="M716.82,464.77" transform="translate(-115.36 -163.57)" fill="none" stroke="#007e83" stroke-miterlimit="10"/><rect x="574.57" y="330.63" width="14.88" height="44.92" fill="#7ecc85"/><rect x="589.44" y="330.63" width="14.88" height="44.92" fill="#008e84"/><rect x="578.18" y="334.98" width="2.48" height="2.48" fill="#b1e5b1"/><rect x="576.91" y="328.15" width="12.53" height="2.48" fill="#edf9f7"/><rect x="589.44" y="328.15" width="12.53" height="2.48" fill="#008e84"/><rect x="583.35" y="334.98" width="2.48" height="2.48" fill="#b1e5b1"/><rect x="578.18" y="340.6" width="2.48" height="2.48" fill="#b1e5b1"/><rect x="583.35" y="340.6" width="2.48" height="2.48" fill="#b1e5b1"/><rect x="578.18" y="346.22" width="2.48" height="2.48" fill="#b1e5b1"/><rect x="583.35" y="346.22" width="2.48" height="2.48" fill="#b1e5b1"/><rect x="578.18" y="351.84" width="2.48" height="2.48" fill="#b1e5b1"/><rect x="583.35" y="351.84" width="2.48" height="2.48" fill="#b1e5b1"/><rect x="578.18" y="357.45" width="2.48" height="2.48" fill="#b1e5b1"/><rect x="583.35" y="357.45" width="2.48" height="2.48" fill="#b1e5b1"/><rect x="578.18" y="363.07" width="2.48" height="2.48" fill="#b1e5b1"/><rect x="583.35" y="363.07" width="2.48" height="2.48" fill="#b1e5b1"/><rect x="593" y="334.98" width="2.48" height="2.48" fill="#6cc993"/><rect x="598.17" y="334.98" width="2.48" height="2.48" fill="#6cc993"/><rect x="593" y="340.6" width="2.48" height="2.48" fill="#6cc993"/><rect x="598.17" y="340.6" width="2.48" height="2.48" fill="#6cc993"/><rect x="593" y="346.22" width="2.48" height="2.48" fill="#6cc993"/><rect x="598.17" y="346.22" width="2.48" height="2.48" fill="#6cc993"/><rect x="593" y="351.84" width="2.48" height="2.48" fill="#6cc993"/><rect x="598.17" y="351.84" width="2.48" height="2.48" fill="#6cc993"/><rect x="593" y="357.45" width="2.48" height="2.48" fill="#6cc993"/><rect x="598.17" y="357.45" width="2.48" height="2.48" fill="#6cc993"/><rect x="593" y="363.07" width="2.48" height="2.48" fill="#6cc993"/><rect x="598.17" y="363.07" width="2.48" height="2.48" fill="#6cc993"/><path d="M741.28,539.12a4.66,4.66,0,0,1,9.32,0" transform="translate(-115.36 -163.57)" fill="#3eb7ae"/><path d="M738.06,539.12a2.58,2.58,0,0,1,5.16,0" transform="translate(-115.36 -163.57)" fill="#3eb7ae"/><path d="M663.26,539.12a4.67,4.67,0,0,1,9.33,0" transform="translate(-115.36 -163.57)" fill="#3eb7ae"/><path d="M671.77,539.12a2.58,2.58,0,0,1,5.16,0" transform="translate(-115.36 -163.57)" fill="#3eb7ae"/><polygon points="782.27 405.54 777.48 429.21 787.06 429.21 782.27 405.54" fill="#007e83"/><polygon points="788.13 413.72 785 429.21 791.27 429.21 788.13 413.72" fill="#007e83"/><polygon points="687.36 270.15 684.22 285.64 690.5 285.64 687.36 270.15" fill="#008e84"/><path d="M901.85,592.78a4.66,4.66,0,0,1,9.32,0" transform="translate(-115.36 -163.57)" fill="#3eb7ae"/><path d="M898.64,592.78a2.58,2.58,0,1,1,5.15,0" transform="translate(-115.36 -163.57)" fill="#3eb7ae"/><polygon points="583.63 510.96 578.84 534.64 588.43 534.64 583.63 510.96" fill="#007e83"/><polygon points="589.5 519.14 586.37 534.64 592.64 534.64 589.5 519.14" fill="#007e83"/><path d="M703.22,698.2a4.66,4.66,0,1,1,9.32,0" transform="translate(-115.36 -163.57)" fill="#b1e5b1"/><path d="M700,698.2a2.58,2.58,0,0,1,5.16,0" transform="translate(-115.36 -163.57)" fill="#b1e5b1"/><path d="M805,449.22a4.66,4.66,0,1,1,9.32,0" transform="translate(-115.36 -163.57)" fill="#7ecc85"/><path d="M801.82,449.22a2.58,2.58,0,1,1,5.16,0" transform="translate(-115.36 -163.57)" fill="#7ecc85"/><path d="M434.32,691.23a4.67,4.67,0,0,1,9.33,0" transform="translate(-115.36 -163.57)" fill="#6cc993"/><path d="M431.11,691.23a2.58,2.58,0,0,1,5.16,0" transform="translate(-115.36 -163.57)" fill="#6cc993"/><polygon points="335.51 527.65 324.34 527.65 324.34 513.99 329.93 508.64 335.51 513.99 335.51 527.65" fill="#008e84"/><polygon points="350.53 527.65 350.53 513.99 344.94 508.64 329.93 508.64 335.51 513.99 335.51 527.65 350.53 527.65" fill="#7ecc85"/><circle cx="329.86" cy="513.99" r="1.16" fill="#6cc993"/><polygon points="329.93 508.64 335.51 513.99 350.53 513.99 344.94 508.64 329.93 508.64" fill="#edf9f7"/><polygon points="339.66 508.64 341.2 510.12 341.2 505.24 339.66 505.24 339.66 508.64" fill="#008e84"/><rect x="341.2" y="505.24" width="1.99" height="4.88" fill="#7ecc85"/><rect x="338.88" y="520.81" width="2.48" height="2.48" fill="#b1e5b1"/><rect x="328.69" y="520.81" width="2.48" height="6.83" fill="#6cc993"/><rect x="344.7" y="520.81" width="2.48" height="2.48" fill="#b1e5b1"/><polygon points="350.73 512.16 347.59 527.65 353.86 527.65 350.73 512.16" fill="#008e84"/><path d="M468.4,691.23a4.66,4.66,0,0,1,9.32,0" transform="translate(-115.36 -163.57)" fill="#7ecc85"/><path d="M465.18,691.23a2.58,2.58,0,1,1,5.16,0" transform="translate(-115.36 -163.57)" fill="#7ecc85"/><polygon points="587.91 608.79 592.65 608.79 592.65 574.37 589.75 574.37 587.91 608.79" fill="#90e2d8"/><polygon points="597.39 608.79 592.65 608.79 592.65 574.37 595.55 574.37 597.39 608.79" fill="#007e83"/><polygon points="571.3 608.79 576.04 608.79 576.04 574.37 573.14 574.37 571.3 608.79" fill="#90e2d8"/><polygon points="580.78 608.79 576.04 608.79 576.04 574.37 578.94 574.37 580.78 608.79" fill="#007e83"/><polygon points="553.09 607.08 581.49 607.08 592.53 596.28 564.13 596.28 553.09 607.08" fill="#edf9f7"/><polygon points="563.98 607.08 592.38 607.08 603.43 596.28 575.02 596.28 563.98 607.08" fill="#edf9f7"/><polygon points="581.76 620.75 570.59 620.75 570.59 607.08 581.64 596.28 581.76 607.08 581.76 620.75" fill="#007e83"/><polygon points="592.65 620.75 581.49 620.75 581.49 607.08 592.53 596.28 592.65 607.08 592.65 620.75" fill="#007e83"/><polygon points="603.55 620.75 592.38 620.75 592.38 607.08 603.43 596.28 603.55 607.08 603.55 620.75" fill="#007e83"/><rect x="542.19" y="607.08" width="28.4" height="13.67" fill="#90e2d8"/><polygon points="542.19 607.08 570.59 607.08 581.64 596.28 553.24 596.28 542.19 607.08" fill="#edf9f7"/><rect x="548.98" y="612.68" width="2.48" height="2.48" fill="#3eb7ae"/><rect x="555.15" y="612.68" width="2.48" height="2.48" fill="#3eb7ae"/><rect x="561.33" y="612.68" width="2.48" height="2.48" fill="#3eb7ae"/><rect x="579.66" y="612.68" width="2.48" height="2.48" fill="#3eb7ae"/><rect x="585.83" y="612.68" width="2.48" height="2.48" fill="#3eb7ae"/><rect x="592.01" y="612.68" width="2.48" height="2.48" fill="#3eb7ae"/><path d="M649.4,784.32a4.66,4.66,0,1,1,9.32,0" transform="translate(-115.36 -163.57)" fill="#007e83"/><path d="M657.91,784.32a2.58,2.58,0,0,1,5.15,0" transform="translate(-115.36 -163.57)" fill="#007e83"/><path d="M717.44,784.32a4.66,4.66,0,1,1,9.32,0" transform="translate(-115.36 -163.57)" fill="#3eb7ae"/><path d="M714.23,784.32a2.58,2.58,0,0,1,5.16,0" transform="translate(-115.36 -163.57)" fill="#3eb7ae"/><polygon points="575.59 97.53 570.85 97.53 570.85 63.1 573.75 63.1 575.59 97.53" fill="#7ecc85"/><polygon points="566.11 97.53 570.85 97.53 570.85 63.1 567.95 63.1 566.11 97.53" fill="#008e84"/><polygon points="592.2 97.53 587.47 97.53 587.47 63.1 590.37 63.1 592.2 97.53" fill="#7ecc85"/><polygon points="582.73 97.53 587.47 97.53 587.47 63.1 584.57 63.1 582.73 97.53" fill="#008e84"/><polygon points="610.42 95.82 582.02 95.82 570.97 85.02 599.37 85.02 610.42 95.82" fill="#edf9f7"/><polygon points="599.52 95.82 571.12 95.82 560.08 85.02 588.48 85.02 599.52 95.82" fill="#edf9f7"/><polygon points="581.75 109.49 592.91 109.49 592.91 95.82 581.87 85.02 581.75 95.82 581.75 109.49" fill="#008e84"/><polygon points="570.85 109.49 582.02 109.49 582.02 95.82 570.97 85.02 570.85 95.82 570.85 109.49" fill="#008e84"/><polygon points="559.96 109.49 571.12 109.49 571.12 95.82 560.08 85.02 559.96 95.82 559.96 109.49" fill="#008e84"/><rect x="708.27" y="259.39" width="28.4" height="13.67" transform="translate(1329.58 368.88) rotate(-180)" fill="#7ecc85"/><polygon points="621.32 95.82 592.91 95.82 581.87 85.02 610.27 85.02 621.32 95.82" fill="#edf9f7"/><rect x="727.4" y="264.99" width="2.48" height="2.48" transform="translate(1341.93 368.88) rotate(-180)" fill="#b1e5b1"/><rect x="721.23" y="264.99" width="2.48" height="2.48" transform="translate(1329.58 368.88) rotate(-180)" fill="#b1e5b1"/><rect x="715.06" y="264.99" width="2.48" height="2.48" transform="translate(1317.24 368.88) rotate(-180)" fill="#b1e5b1"/><rect x="696.73" y="264.99" width="2.48" height="2.48" transform="translate(1280.57 368.88) rotate(-180)" fill="#6cc993"/><rect x="690.55" y="264.99" width="2.48" height="2.48" transform="translate(1268.22 368.88) rotate(-180)" fill="#6cc993"/><rect x="684.38" y="264.99" width="2.48" height="2.48" transform="translate(1255.88 368.88) rotate(-180)" fill="#6cc993"/><path d="M744.82,273.06a4.66,4.66,0,0,0-9.32,0" transform="translate(-115.36 -163.57)" fill="#008e84"/><path d="M736.31,273.06a2.58,2.58,0,1,0-5.16,0" transform="translate(-115.36 -163.57)" fill="#008e84"/><path d="M676.78,273.06a4.67,4.67,0,0,0-9.33,0" transform="translate(-115.36 -163.57)" fill="#7ecc85"/><path d="M680,273.06a2.58,2.58,0,0,0-5.16,0" transform="translate(-115.36 -163.57)" fill="#7ecc85"/><path d="M782.65,339.65a4.66,4.66,0,0,1,9.32,0" transform="translate(-115.36 -163.57)" fill="#007e83"/><path d="M791.16,339.65a2.58,2.58,0,0,1,5.16,0" transform="translate(-115.36 -163.57)" fill="#007e83"/><path d="M820.82,339.65a4.67,4.67,0,0,1,9.33,0" transform="translate(-115.36 -163.57)" fill="#3eb7ae"/><path d="M817.61,339.65a2.58,2.58,0,1,1,5.16,0" transform="translate(-115.36 -163.57)" fill="#3eb7ae"/><polygon points="465.87 305.62 461.08 329.3 470.67 329.3 465.87 305.62" fill="#007e83"/><polygon points="471.74 313.8 468.61 329.3 474.88 329.3 471.74 313.8" fill="#007e83"/><path d="M572.66,492.86a4.67,4.67,0,0,1,9.33,0" transform="translate(-115.36 -163.57)" fill="#3eb7ae"/><path d="M581.17,492.86a2.58,2.58,0,1,1,5.16,0" transform="translate(-115.36 -163.57)" fill="#3eb7ae"/><rect x="763.14" y="206.66" width="13.5" height="28.76" fill="#3eb7ae"/><rect x="771.6" y="206.66" width="5.03" height="28.76" fill="#007e83"/><polygon points="771.43 203.88 768.33 203.88 758.36 203.88 763.14 206.66 768.33 206.66 771.43 206.66 776.87 206.66 781.41 203.88 771.43 203.88" fill="#3eb7ae"/><polygon points="782.89 194.37 756.88 194.37 758.36 203.88 781.41 203.88 782.89 194.37" fill="#007e83"/><polygon points="778.51 193.17 761.27 193.37 762.24 202.81 777.53 202.81 778.51 193.17" fill="none" stroke="#edf9f7" stroke-miterlimit="10" stroke-width="0.5"/><polyline points="777.42 203.88 778.51 193.17 761.27 193.37" fill="none" stroke="#edf9f7" stroke-miterlimit="10" stroke-width="0.5"/><polygon points="772.61 193.17 767.18 193.37 767.49 202.99 772.29 203.05 772.61 193.17" fill="none" stroke="#edf9f7" stroke-miterlimit="10" stroke-width="0.5"/><rect x="763.14" y="206.66" width="13.5" height="2.48" fill="#007e83"/><polygon points="781.74 201.75 758.02 201.75 758.36 203.88 781.41 203.88 781.74 201.75" fill="#edf9f7"/><polygon points="769.88 189.61 769.88 189.61 769.88 189.61 769.88 189.61 769.88 189.61 754.8 194.37 769.88 194.37 784.97 194.37 769.88 189.61" fill="#edf9f7"/><polygon points="760.56 219.92 757.43 235.42 763.7 235.42 760.56 219.92" fill="#007e83"/><polygon points="755.13 224.07 752.83 235.42 757.43 235.42 755.13 224.07" fill="#007e83"/><path d="M878.23,399a4.66,4.66,0,0,1,9.32,0" transform="translate(-115.36 -163.57)" fill="#90e2d8"/><path d="M875,399a2.58,2.58,0,1,1,5.16,0" transform="translate(-115.36 -163.57)" fill="#90e2d8"/><path d="M848,368.29l-3.48-1.1-.65,2.06,3.48,1.1a1.08,1.08,0,0,0,.65-2.06Z" transform="translate(-115.36 -163.57)" fill="#edf9f7"/><circle cx="728.81" cy="204.65" r="1.08" fill="#007e83"/><path d="M844.48,379.33,841,378.24c0-.11-.65,2.05-.65,2.05l3.48,1.1a1.08,1.08,0,0,0,.65-2.06Z" transform="translate(-115.36 -163.57)" fill="#edf9f7"/><circle cx="725.32" cy="215.69" r="1.08" fill="#007e83"/><polygon points="720.48 207.91 727.81 222 729.57 222.55 727.68 210.18 720.48 207.91" fill="#007e83"/><path d="M862.51,373.68l-5.08,4.62-.64.58a3.5,3.5,0,0,1-3.39.74l-30.65-9.68a1.39,1.39,0,0,1-.34-2.49l.22-.14,2.12-1.39a1.37,1.37,0,0,1,1.18-.17l27.48,8.68a3.48,3.48,0,0,0,3.38-.74,3.48,3.48,0,0,1,3.39-.74Z" transform="translate(-115.36 -163.57)" fill="#edf9f7"/><polygon points="720.48 207.91 734.57 200.58 736.33 201.13 727.68 210.18 720.48 207.91" fill="#90e2d8"/><path d="M857.43,378.3l-.64.58a3.5,3.5,0,0,1-3.39.74l-30.65-9.68a1.39,1.39,0,0,1-.34-2.49l.22-.14Z" transform="translate(-115.36 -163.57)" fill="#90e2d8"/><path d="M739,583.49v15.38c-2.6,3.2-10.35,5-18.18,5.31-.71,0-1.43,0-2.14,0s-1.42,0-2.13,0c-7.84-.28-15.58-2.11-18.18-5.31V583.49Z" transform="translate(-115.36 -163.57)" fill="#90e2d8"/><ellipse cx="603.3" cy="419.91" rx="20.31" ry="6.81" fill="#edf9f7"/><path d="M738.65,587.55a3.31,3.31,0,0,1-.54.78,7.34,7.34,0,0,1-1.86,1.43,10.59,10.59,0,0,1-1,.53c-3.68,1.75-9.74,2.88-16.59,2.88s-12.9-1.13-16.58-2.88a10.59,10.59,0,0,1-1-.53,7.52,7.52,0,0,1-1.86-1.43,3.64,3.64,0,0,1-.54-.78,2.43,2.43,0,0,1-.32-1.18v2.38a3.59,3.59,0,0,0,.32.36,7.52,7.52,0,0,0,1.48,1.18c.28.19.59.36.92.54,4.06,2.14,11,3.26,17.59,3.26s13.54-1.12,17.6-3.26a9.72,9.72,0,0,0,.92-.54,7.52,7.52,0,0,0,1.48-1.18,2.67,2.67,0,0,0,.32-.36v-2.38A2.33,2.33,0,0,1,738.65,587.55Z" transform="translate(-115.36 -163.57)" fill="#edf9f7"/><path d="M738.65,591.48a3.78,3.78,0,0,1-.54.78c-2.53,2.81-10.28,4.84-19.46,4.84s-16.92-2-19.45-4.84a4.21,4.21,0,0,1-.54-.78,2.47,2.47,0,0,1-.32-1.19v2.39a3.49,3.49,0,0,0,.32.35c3.13,3.26,11.77,5,20,5s16.87-1.73,20-5a2.6,2.6,0,0,0,.32-.35v-2.39A2.37,2.37,0,0,1,738.65,591.48Z" transform="translate(-115.36 -163.57)" fill="#edf9f7"/><path d="M718.65,601c-11.21,0-20.31-3-20.31-6.81v2.38c2.84,3.5,11.8,5.35,20.31,5.35s17.48-1.85,20.32-5.35v-2.38C739,598,729.87,601,718.65,601Z" transform="translate(-115.36 -163.57)" fill="#edf9f7"/><path d="M718.65,603.3c-11.21,0-20.31-3-20.31-6.81v2.38c2.84,3.5,11.8,5.35,20.31,5.35s17.48-1.85,20.32-5.35v-2.38C739,600.25,729.87,603.3,718.65,603.3Z" transform="translate(-115.36 -163.57)" fill="#3eb7ae"/><path d="M734.19,583.49c0,1.44-3.23,2.71-8,3.36a57.95,57.95,0,0,1-15,0c-4.77-.65-8-1.92-8-3.36,0-2.14,7-3.86,15.53-3.86S734.19,581.35,734.19,583.49Z" transform="translate(-115.36 -163.57)" fill="#008e84"/><path d="M726.17,586.85a57.95,57.95,0,0,1-15,0c.86-.82,3.91-1.44,7.52-1.44S725.32,586,726.17,586.85Z" transform="translate(-115.36 -163.57)" fill="#90e2d8"/><path d="M720.79,600.11v4.07c-.71,0-1.43,0-2.14,0s-1.42,0-2.13,0v-4.07a2.11,2.11,0,0,1,2.1-2.11h.06A2.11,2.11,0,0,1,720.79,600.11Z" transform="translate(-115.36 -163.57)" fill="#007e83"/></svg>